<svg xmlns="http://www.w3.org/2000/svg" width="1200" height="630" viewBox="0 0 1200 630" role="img" aria-labelledby="title desc">
  <title id="title">Nodi neon self-hosted file manager</title>
  <desc id="desc">A dark synthwave Open Graph image for Nodi.</desc>
  <rect width="1200" height="630" fill="#0d0e11"/>
  <rect width="1200" height="630" fill="url(#grid)" opacity=".34"/>
  <circle cx="600" cy="-50" r="380" fill="#ec4899" opacity=".18"/>
  <circle cx="950" cy="140" r="260" fill="#a855f7" opacity=".16"/>
  <rect x="86" y="84" width="1028" height="462" rx="18" fill="#14151a" stroke="#3a3a3f" stroke-width="2"/>
  <rect x="86" y="84" width="1028" height="76" rx="18" fill="#282a36"/>
  <circle cx="128" cy="122" r="10" fill="#f87171"/>
  <circle cx="160" cy="122" r="10" fill="#fcd34d"/>
  <circle cx="192" cy="122" r="10" fill="#34d399"/>
  <path d="M86 160h1028" stroke="#3a3a3f" stroke-width="2"/>
  <g transform="translate(238 208)">
    <path d="M84 0l74 43v86l-74 43-74-43V43L84 0z" fill="#14151a" stroke="#f472b6" stroke-width="12"/>
    <path d="M84 0v72m0 100V100m74-57-74 43-74-43" stroke="#f472b6" stroke-width="12" fill="none"/>
  </g>
  <text x="442" y="284" font-family="system-ui, -apple-system, Segoe UI, sans-serif" font-size="92" font-weight="800" fill="#ffffff">Nodi</text>
  <text x="442" y="352" font-family="system-ui, -apple-system, Segoe UI, sans-serif" font-size="40" font-weight="800" fill="#f472b6">Neon self-hosted file manager</text>
  <text x="442" y="414" font-family="ui-monospace, SFMono-Regular, Menlo, monospace" font-size="28" fill="#22d3ee">$ curl -fsSL .../install.sh | bash</text>
  <defs>
    <pattern id="grid" width="44" height="44" patternUnits="userSpaceOnUse">
      <path d="M44 0H0v44" fill="none" stroke="#ffffff" stroke-opacity=".12"/>
    </pattern>
  </defs>
</svg>
